<svg id="Layer_1" data-name="Layer 1" xmlns="http://www.w3.org/2000/svg" viewBox="0 0 274.45 160.38"><defs><style>.cls-1{fill:#fff;}</style></defs><path class="cls-1" d="M34.05,113.64H30.16V112.1h9.42v1.54H35.69v10.55H34.05Z"/><path class="cls-1" d="M39.77,120.71a2.06,2.06,0,0,0,.23,1,2.44,2.44,0,0,0,.61.74,2.63,2.63,0,0,0,.87.48,3,3,0,0,0,1,.17,2.31,2.31,0,0,0,1.25-.33,4,4,0,0,0,1-.88l1.16.89a4.26,4.26,0,0,1-3.58,1.65,4.34,4.34,0,0,1-1.73-.32,3.87,3.87,0,0,1-1.32-.9,4,4,0,0,1-.83-1.35,4.78,4.78,0,0,1-.29-1.68,4.45,4.45,0,0,1,.32-1.68,4.13,4.13,0,0,1,.87-1.35,4.07,4.07,0,0,1,1.32-.9,4.37,4.37,0,0,1,1.68-.32,4,4,0,0,1,1.81.38,3.39,3.39,0,0,1,1.22,1,4,4,0,0,1,.7,1.36,5.79,5.79,0,0,1,.21,1.55v.55Zm4.85-1.23a3,3,0,0,0-.16-.94,2,2,0,0,0-.44-.75,2,2,0,0,0-.72-.49,2.66,2.66,0,0,0-1-.18,2.5,2.5,0,0,0-1,.21,2.61,2.61,0,0,0-1.3,1.32,2.07,2.07,0,0,0-.18.83Z"/><path class="cls-1" d="M53.47,118.25a3.44,3.44,0,0,0-.9-.68,2.57,2.57,0,0,0-1.12-.23,2.51,2.51,0,0,0-1.1.23,2.45,2.45,0,0,0-.79.63,2.91,2.91,0,0,0-.47.93,3.49,3.49,0,0,0-.17,1.08,3.17,3.17,0,0,0,.19,1.07,2.79,2.79,0,0,0,.53.88,2.57,2.57,0,0,0,.82.59,2.67,2.67,0,0,0,1.08.21,2.53,2.53,0,0,0,1.11-.23,2.8,2.8,0,0,0,.85-.68l1.09,1.1a3.43,3.43,0,0,1-1.39.95,5,5,0,0,1-3.4,0,4.19,4.19,0,0,1-1.34-.87,3.94,3.94,0,0,1-.87-1.33,4.73,4.73,0,0,1-.3-1.71,4.84,4.84,0,0,1,.3-1.73,4,4,0,0,1,.87-1.35,3.86,3.86,0,0,1,1.33-.88,4.52,4.52,0,0,1,1.73-.31,4.66,4.66,0,0,1,1.7.31,3.8,3.8,0,0,1,1.41,1Z"/><path class="cls-1" d="M55.48,111.28H57v6.06h0a2.32,2.32,0,0,1,1-1,3.32,3.32,0,0,1,1.66-.4,3.44,3.44,0,0,1,1.11.18,2.36,2.36,0,0,1,.94.56,2.53,2.53,0,0,1,.64,1,3.68,3.68,0,0,1,.24,1.39v5.21H61.12v-4.78a2.56,2.56,0,0,0-.16-1,1.85,1.85,0,0,0-.41-.65,1.47,1.47,0,0,0-.59-.35,2,2,0,0,0-.69-.12,2.6,2.6,0,0,0-.89.16,1.72,1.72,0,0,0-.71.49,2.16,2.16,0,0,0-.48.84A4,4,0,0,0,57,120v4.17H55.48Z"/><path class="cls-1" d="M63.93,122.65l6.89-9H64.14V112.1h8.72v1.54l-6.84,9h7v1.54h-9Z"/><path class="cls-1" d="M73.86,120.14a4.12,4.12,0,0,1,.33-1.65,4.07,4.07,0,0,1,.91-1.35,4.34,4.34,0,0,1,1.37-.92,4.28,4.28,0,0,1,1.69-.33,4.35,4.35,0,0,1,1.69.33,4.46,4.46,0,0,1,1.37.92,4.23,4.23,0,0,1,.91,1.35,4.12,4.12,0,0,1,.33,1.65,4.25,4.25,0,0,1-.33,1.67,4.46,4.46,0,0,1-.91,1.35,4.4,4.4,0,0,1-1.37.9,4.35,4.35,0,0,1-1.69.33,4.22,4.22,0,0,1-4.3-4.25Zm1.64,0a3.49,3.49,0,0,0,.18,1.14,2.59,2.59,0,0,0,.53.88,2.55,2.55,0,0,0,.84.59,3,3,0,0,0,2.22,0,2.43,2.43,0,0,0,1.36-1.47,3.25,3.25,0,0,0,.19-1.14,3.15,3.15,0,0,0-.19-1.13,2.52,2.52,0,0,0-.52-.89,2.38,2.38,0,0,0-.84-.58,2.91,2.91,0,0,0-2.22,0,2.38,2.38,0,0,0-.84.58,2.54,2.54,0,0,0-.53.89A3.39,3.39,0,0,0,75.5,120.14Z"/><path class="cls-1" d="M84,116.1H85.5v1.24h0a2.37,2.37,0,0,1,1-1,3.32,3.32,0,0,1,1.66-.4,3.5,3.5,0,0,1,1.12.18,2.43,2.43,0,0,1,.94.56,2.78,2.78,0,0,1,.64,1,3.68,3.68,0,0,1,.24,1.39v5.21H89.6v-4.78a2.78,2.78,0,0,0-.15-1,2,2,0,0,0-.41-.65,1.62,1.62,0,0,0-.59-.35,2.09,2.09,0,0,0-.69-.12,2.56,2.56,0,0,0-.89.16,1.69,1.69,0,0,0-.72.49,2.29,2.29,0,0,0-.48.84A4,4,0,0,0,85.5,120v4.17H84Z"/><path class="cls-1" d="M94.19,120.71a2.06,2.06,0,0,0,.23,1,2.44,2.44,0,0,0,.61.74,2.63,2.63,0,0,0,.87.48,3,3,0,0,0,1,.17,2.3,2.3,0,0,0,1.24-.33,4,4,0,0,0,1-.88l1.17.89a4.29,4.29,0,0,1-3.59,1.65,4.37,4.37,0,0,1-1.73-.32,3.87,3.87,0,0,1-1.32-.9,4,4,0,0,1-.83-1.35,4.78,4.78,0,0,1-.29-1.68,4.45,4.45,0,0,1,.32-1.68,4.13,4.13,0,0,1,.87-1.35,4.07,4.07,0,0,1,1.32-.9,4.41,4.41,0,0,1,1.68-.32,4,4,0,0,1,1.82.38,3.57,3.57,0,0,1,1.22,1,4,4,0,0,1,.69,1.36,5.79,5.79,0,0,1,.21,1.55v.55ZM99,119.48a3,3,0,0,0-.16-.94,2.13,2.13,0,0,0-.43-.75,2.09,2.09,0,0,0-.73-.49,2.66,2.66,0,0,0-1-.18,2.5,2.5,0,0,0-1,.21,2.61,2.61,0,0,0-1.3,1.32,2.07,2.07,0,0,0-.18.83Z"/><path class="cls-1" d="M108.9,112.07a6.1,6.1,0,1,0,6.09,6.09A6.1,6.1,0,0,0,108.9,112.07Zm-.19,4.71a.73.73,0,0,0,.64-.24.72.72,0,0,0,0-.59,8.85,8.85,0,0,1-.36-1.07,4.23,4.23,0,0,1,.13-2l1.06,2.95a1.14,1.14,0,0,1-.12,1.22,1.52,1.52,0,0,1-1.28.56h-2.49A3.07,3.07,0,0,1,108.71,116.78Zm1.42,4.59-.55-1.54a1.37,1.37,0,0,0-1.37-.86h-4.59a3.13,3.13,0,0,1,2.1-.82h3c1.51,0,1.55.8,1.94,1.75l1,2.9A2,2,0,0,1,110.13,121.37Zm2.1-6.29-.22.62a.51.51,0,0,1-.46.33h-.33s-.34,0-.23-.32l.23-.63a.47.47,0,0,1,.45-.32H112A.22.22,0,0,1,112.23,115.08Z"/><path class="cls-1" d="M100.89,123.36a1.06,1.06,0,0,1,.08-.4,1,1,0,0,1,.23-.33,1,1,0,0,1,.32-.22,1,1,0,0,1,.41-.09.93.93,0,0,1,.4.09,1,1,0,0,1,.32.22,1,1,0,0,1,.23.33,1,1,0,0,1,0,.8,1,1,0,0,1-.23.33,1,1,0,0,1-.32.22.92.92,0,0,1-.4.08.94.94,0,0,1-.41-.08,1,1,0,0,1-.32-.22,1,1,0,0,1-.23-.33A1.06,1.06,0,0,1,100.89,123.36Zm.18,0a.88.88,0,0,0,.07.33,1.27,1.27,0,0,0,.18.27.75.75,0,0,0,.28.18.72.72,0,0,0,.33.07.78.78,0,0,0,.33-.07.8.8,0,0,0,.27-.18,1,1,0,0,0,.18-.27.81.81,0,0,0,0-.66.75.75,0,0,0-.18-.27,1,1,0,0,0-.27-.19,1,1,0,0,0-.33-.06.88.88,0,0,0-.33.06.92.92,0,0,0-.28.19.91.91,0,0,0-.18.27A.88.88,0,0,0,101.07,123.36Zm.46-.6H102a.47.47,0,0,1,.32.09.33.33,0,0,1,.1.27.32.32,0,0,1-.08.23.34.34,0,0,1-.2.09l.31.5h-.23l-.3-.48h-.16v.48h-.21Zm.21.52H102l.09,0a.18.18,0,0,0,.07,0s0,0,0-.09,0-.07,0-.09a.18.18,0,0,0-.07,0l-.09,0h-.26Z"/><path class="cls-1" d="M20.75,120.91a1.92,1.92,0,0,1,.32.62,2.41,2.41,0,0,1,.1.72,2.26,2.26,0,0,1-.47,1.46,1.69,1.69,0,0,1-1.41.67H15.34v-1.45H19a.51.51,0,0,0,.41-.2.7.7,0,0,0,.13-.44.64.64,0,0,0-.13-.42.51.51,0,0,0-.41-.18h-3.7v-1.55H19a.48.48,0,0,0,.4-.18.68.68,0,0,0,.14-.42.67.67,0,0,0-.13-.43.48.48,0,0,0-.41-.2h-3.7v-1.47h3.95a1.73,1.73,0,0,1,1.42.68,2.35,2.35,0,0,1,.48,1.48,2.46,2.46,0,0,1-.11.72A1.63,1.63,0,0,1,20.75,120.91Z"/><path class="cls-1" d="M28.07,117.49l-2.82,4.36v2.53H23.71v-2.53l-2.79-4.36h1.79L24.37,120s.05.08.12.08a.16.16,0,0,0,.15-.08l1.63-2.55Z"/><path class="cls-1" d="M66.73,86.38a3.37,3.37,0,0,1-6.62.91L48.78,46.9a17.37,17.37,0,0,0-34.1,4.66V102h14V51.56a3.37,3.37,0,0,1,6.62-.9L46.63,91.05a17.37,17.37,0,0,0,34.1-4.67V35.92h-14Z"/><path class="cls-1" d="M181.08,62H163.62a6,6,0,0,1,0-12.07H197.7v-14H163.62a20,20,0,1,0,0,40.05h17.46a6,6,0,1,1,0,12.06H146L132.4,46.22a17.41,17.41,0,0,0-33.11,0L81.15,102H95.87L112.6,50.55a3.41,3.41,0,0,1,6.49,0L135.82,102h45.26a20,20,0,1,0,0-40.05"/><path class="cls-1" d="M249.54,46.22a17.42,17.42,0,0,0-33.12,0L198.29,102H213l16.73-51.48a3.42,3.42,0,0,1,6.5,0L253,102h14.72Z"/></svg>